<?xml version="1.0" encoding="UTF-8"?>
<!DOCTYPE svg PUBLIC "-//W3C//DTD SVG 1.1//EN" "http://www.w3.org/Graphics/SVG/1.1/DTD/svg11.dtd">
<svg xmlns="http://www.w3.org/2000/svg" version="1.1" width="256px" height="256px" style="shape-rendering:geometricPrecision; text-rendering:geometricPrecision; image-rendering:optimizeQuality; fill-rule:evenodd; clip-rule:evenodd" xmlns:xlink="http://www.w3.org/1999/xlink">
<g><path style="opacity:1" fill="#fefefe" d="M -0.5,-0.5 C 84.8333,-0.5 170.167,-0.5 255.5,-0.5C 255.5,84.8333 255.5,170.167 255.5,255.5C 170.167,255.5 84.8333,255.5 -0.5,255.5C -0.5,170.167 -0.5,84.8333 -0.5,-0.5 Z"/></g>
<g><path style="opacity:1" fill="#1dcf65" d="M 192.5,50.5 C 148.5,50.5 104.5,50.5 60.5,50.5C 60.2436,48.2075 60.5769,46.0408 61.5,44C 104.833,43.3333 148.167,43.3333 191.5,44C 192.423,46.0408 192.756,48.2075 192.5,50.5 Z"/></g>
<g><path style="opacity:1" fill="#59ea85" d="M 60.5,50.5 C 104.5,50.5 148.5,50.5 192.5,50.5C 184.677,51.3292 176.677,51.8292 168.5,52C 166.635,54.365 164.968,54.5317 163.5,52.5C 162.205,53.0983 160.872,53.5983 159.5,54C 160.808,54.8238 162.308,55.3238 164,55.5C 164.122,57.1686 163.788,58.8353 163,60.5C 162.223,58.2985 161.056,58.2985 159.5,60.5C 162.131,62.0046 161.797,62.6713 158.5,62.5C 158.286,60.8561 158.62,59.3561 159.5,58C 156.768,57.095 156.101,57.7617 157.5,60C 156.086,62.2355 155.086,64.2355 154.5,66C 152.953,66.3334 151.62,65.8334 150.5,64.5C 149.201,65.09 148.368,66.09 148,67.5C 146.542,65.476 144.709,65.3093 142.5,67C 144.5,67.6667 146.5,68.3333 148.5,69C 147.5,70 146.5,71 145.5,72C 146.167,72.3333 146.833,72.6667 147.5,73C 146,73.8333 144.833,75 144,76.5C 142.606,74.5981 140.773,74.2647 138.5,75.5C 138.343,76.8734 138.51,78.2068 139,79.5C 139.718,78.5494 140.551,78.3828 141.5,79C 142.833,79.6667 142.833,80.3333 141.5,81C 140.451,81.4922 139.451,81.3256 138.5,80.5C 138.891,81.8905 138.058,82.8905 136,83.5C 135.311,82.6433 134.478,81.9767 133.5,81.5C 131.808,83.3586 130.308,85.3586 129,87.5C 128.333,86.1667 127.333,85.1667 126,84.5C 125.383,85.4491 125.549,86.2825 126.5,87C 124.109,87.6914 124.109,88.6914 126.5,90C 125.167,91 125.167,92 126.5,93C 125.101,93.5946 123.768,93.4279 122.5,92.5C 121.808,93.0253 121.308,93.6919 121,94.5C 120.667,94.1667 120.333,93.8333 120,93.5C 119.125,97.6068 117.291,98.2735 114.5,95.5C 113.904,96.7161 113.737,98.0494 114,99.5C 112.57,99.6938 111.07,99.6938 109.5,99.5C 106.136,101.559 105.969,102.226 109,101.5C 109.617,102.449 109.451,103.282 108.5,104C 109.449,104.617 110.282,104.451 111,103.5C 111.688,104.332 111.521,104.998 110.5,105.5C 107.639,106.989 104.306,108.156 100.5,109C 101.604,110.131 101.271,110.965 99.5,111.5C 98.6852,109.724 97.5185,109.057 96,109.5C 96.3333,111.167 96.6667,112.833 97,114.5C 95.6667,115.167 94.6667,116.167 94,117.5C 92.7012,117.034 91.2012,117.034 89.5,117.5C 89.7373,116.209 89.404,115.209 88.5,114.5C 87.1667,111.833 85.8333,111.833 84.5,114.5C 83.6862,116.631 83.1862,118.964 83,121.5C 81.3908,120.85 79.8908,121.35 78.5,123C 79.676,124.914 80.676,124.748 81.5,122.5C 82.3473,124.061 82.0139,125.561 80.5,127C 82.2826,128.067 82.7826,129.567 82,131.5C 81.0664,128.035 79.5664,127.702 77.5,130.5C 78.5036,134.653 77.337,135.32 74,132.5C 72.5024,134.614 70.6691,135.114 68.5,134C 71.277,136.173 71.1103,136.673 68,135.5C 67.3333,138.167 66.6667,138.167 66,135.5C 62.7897,140.088 63.7897,140.755 69,137.5C 69.2677,139.59 68.2677,140.924 66,141.5C 63.7635,140.944 61.7635,139.944 60,138.5C 59.5521,140.409 60.3855,141.576 62.5,142C 61.7362,144.069 61.2362,146.236 61,148.5C 59.6228,144.735 58.6228,145.068 58,149.5C 57.6667,148.5 57.3333,147.5 57,146.5C 56.2935,148.081 55.4601,149.581 54.5,151C 55.3081,151.308 55.9747,151.808 56.5,152.5C 55.6872,153.814 54.6872,154.981 53.5,156C 54.3402,157.666 53.8402,157.833 52,156.5C 51.082,158.632 49.7487,159.299 48,158.5C 46.9032,160.053 45.5699,161.386 44,162.5C 43.5017,159.183 43.335,155.85 43.5,152.5C 45.5438,119.467 48.0438,86.4668 51,53.5C 51.3742,52.5838 51.8742,51.7504 52.5,51C 55.146,50.5026 57.8127,50.3359 60.5,50.5 Z"/></g>
<g><path style="opacity:1" fill="#57e381" d="M 192.5,50.5 C 196.007,49.9935 199.174,50.6602 202,52.5C 203.469,61.432 204.303,70.432 204.5,79.5C 203.504,79.5858 202.671,79.2524 202,78.5C 200.543,80.6579 198.71,82.4912 196.5,84C 197.654,84.9138 197.487,85.7471 196,86.5C 193.443,85.3543 192.11,86.3543 192,89.5C 190.456,86.7364 189.289,86.9031 188.5,90C 188.833,90.3333 189.167,90.6667 189.5,91C 185.337,92.9216 181.67,95.5882 178.5,99C 178.833,99.3333 179.167,99.6667 179.5,100C 178.451,100.492 177.451,100.326 176.5,99.5C 175.069,101.938 173.069,103.604 170.5,104.5C 167.703,102.205 165.036,99.705 162.5,97C 161.5,96.3333 160.5,96.3333 159.5,97C 155,101.5 150.5,106 146,110.5C 145.167,113.667 146.333,114.833 149.5,114C 153.333,110.167 157.167,106.333 161,102.5C 163.04,104.37 164.873,106.37 166.5,108.5C 165.571,109.315 164.571,110.148 163.5,111C 165.932,112.087 165.598,112.587 162.5,112.5C 161.178,112.33 160.011,112.663 159,113.5C 159.09,128.811 153.59,141.644 142.5,152C 120.394,163.538 103.894,158.038 93,135.5C 90.1558,128.778 88.6558,121.778 88.5,114.5C 89.404,115.209 89.7373,116.209 89.5,117.5C 91.2012,117.034 92.7012,117.034 94,117.5C 94.6667,116.167 95.6667,115.167 97,114.5C 96.6667,112.833 96.3333,111.167 96,109.5C 97.5185,109.057 98.6852,109.724 99.5,111.5C 101.271,110.965 101.604,110.131 100.5,109C 104.306,108.156 107.639,106.989 110.5,105.5C 111.521,104.998 111.688,104.332 111,103.5C 110.282,104.451 109.449,104.617 108.5,104C 109.451,103.282 109.617,102.449 109,101.5C 105.969,102.226 106.136,101.559 109.5,99.5C 111.07,99.6938 112.57,99.6938 114,99.5C 113.737,98.0494 113.904,96.7161 114.5,95.5C 117.291,98.2735 119.125,97.6068 120,93.5C 120.333,93.8333 120.667,94.1667 121,94.5C 121.308,93.6919 121.808,93.0253 122.5,92.5C 123.768,93.4279 125.101,93.5946 126.5,93C 125.167,92 125.167,91 126.5,90C 124.109,88.6914 124.109,87.6914 126.5,87C 125.549,86.2825 125.383,85.4491 126,84.5C 127.333,85.1667 128.333,86.1667 129,87.5C 130.308,85.3586 131.808,83.3586 133.5,81.5C 134.478,81.9767 135.311,82.6433 136,83.5C 138.058,82.8905 138.891,81.8905 138.5,80.5C 139.451,81.3256 140.451,81.4922 141.5,81C 142.833,80.3333 142.833,79.6667 141.5,79C 140.551,78.3828 139.718,78.5494 139,79.5C 138.51,78.2068 138.343,76.8734 138.5,75.5C 140.773,74.2647 142.606,74.5981 144,76.5C 144.833,75 146,73.8333 147.5,73C 146.833,72.6667 146.167,72.3333 145.5,72C 146.5,71 147.5,70 148.5,69C 146.5,68.3333 144.5,67.6667 142.5,67C 144.709,65.3093 146.542,65.476 148,67.5C 148.368,66.09 149.201,65.09 150.5,64.5C 151.62,65.8334 152.953,66.3334 154.5,66C 155.086,64.2355 156.086,62.2355 157.5,60C 156.101,57.7617 156.768,57.095 159.5,58C 158.62,59.3561 158.286,60.8561 158.5,62.5C 161.797,62.6713 162.131,62.0046 159.5,60.5C 161.056,58.2985 162.223,58.2985 163,60.5C 163.788,58.8353 164.122,57.1686 164,55.5C 162.308,55.3238 160.808,54.8238 159.5,54C 160.872,53.5983 162.205,53.0983 163.5,52.5C 164.968,54.5317 166.635,54.365 168.5,52C 176.677,51.8292 184.677,51.3292 192.5,50.5 Z"/></g>
<g><path style="opacity:1" fill="#55dd7e" d="M 204.5,79.5 C 206.105,95.4229 207.438,111.423 208.5,127.5C 207.448,127.351 206.448,127.517 205.5,128C 202.272,131.228 199.106,134.394 196,137.5C 195.026,135.122 194.359,135.456 194,138.5C 193.333,139.833 192.667,139.833 192,138.5C 190.272,140.842 188.605,143.175 187,145.5C 185.16,144.167 184.66,144.334 185.5,146C 183.998,146.583 182.665,147.416 181.5,148.5C 182.504,150.677 181.838,151.011 179.5,149.5C 174.274,154.896 168.608,159.729 162.5,164C 162.833,164.333 163.167,164.667 163.5,165C 162.167,165.667 161.167,166.667 160.5,168C 156.674,171.63 152.341,174.797 147.5,177.5C 147.306,179.07 147.306,180.57 147.5,182C 145.874,181.805 144.207,181.805 142.5,182C 143.654,182.914 143.487,183.747 142,184.5C 141.667,184.167 141.333,183.833 141,183.5C 138.493,186.113 136.159,188.113 134,189.5C 132.649,191.019 131.149,192.352 129.5,193.5C 130.629,195.529 130.129,195.863 128,194.5C 126.127,196.709 123.96,198.542 121.5,200C 123.992,201.249 123.825,202.416 121,203.5C 120.586,203.043 120.086,202.709 119.5,202.5C 117.052,203.803 115.552,205.803 115,208.5C 114.667,208.167 114.333,207.833 114,207.5C 112.417,209.055 110.584,210.222 108.5,211C 88.5028,211.5 68.5028,211.667 48.5,211.5C 50.7392,208.774 53.2392,206.108 56,203.5C 56.3333,203.833 56.6667,204.167 57,204.5C 58.4194,203.54 59.9194,202.707 61.5,202C 60.8333,201.667 60.1667,201.333 59.5,201C 62.6227,199.118 65.2894,196.785 67.5,194C 68.448,193.517 69.448,193.351 70.5,193.5C 70.281,192.325 70.6143,191.325 71.5,190.5C 76.0737,186.625 80.407,183.458 84.5,181C 84.1667,180.667 83.8333,180.333 83.5,180C 84.9733,179.29 85.6399,178.124 85.5,176.5C 87.1238,176.64 88.2904,175.973 89,174.5C 89.3333,174.833 89.6667,175.167 90,175.5C 96.6163,170.356 102.45,165.023 107.5,159.5C 132.174,167.753 149.674,159.753 160,135.5C 162.753,127.943 163.587,120.277 162.5,112.5C 165.598,112.587 165.932,112.087 163.5,111C 164.571,110.148 165.571,109.315 166.5,108.5C 168.63,110.127 170.63,111.96 172.5,114C 175.667,114.833 176.833,113.667 176,110.5C 173.96,108.63 172.127,106.63 170.5,104.5C 173.069,103.604 175.069,101.938 176.5,99.5C 177.451,100.326 178.451,100.492 179.5,100C 179.167,99.6667 178.833,99.3333 178.5,99C 181.67,95.5882 185.337,92.9216 189.5,91C 189.167,90.6667 188.833,90.3333 188.5,90C 189.289,86.9031 190.456,86.7364 192,89.5C 192.11,86.3543 193.443,85.3543 196,86.5C 197.487,85.7471 197.654,84.9138 196.5,84C 198.71,82.4912 200.543,80.6579 202,78.5C 202.671,79.2524 203.504,79.5858 204.5,79.5 Z"/></g>
<g><path style="opacity:1" fill="#f7fdf9" d="M 170.5,104.5 C 172.127,106.63 173.96,108.63 176,110.5C 176.833,113.667 175.667,114.833 172.5,114C 170.63,111.96 168.63,110.127 166.5,108.5C 164.873,106.37 163.04,104.37 161,102.5C 157.167,106.333 153.333,110.167 149.5,114C 146.333,114.833 145.167,113.667 146,110.5C 150.5,106 155,101.5 159.5,97C 160.5,96.3333 161.5,96.3333 162.5,97C 165.036,99.705 167.703,102.205 170.5,104.5 Z"/></g>
<g><path style="opacity:1" fill="#f8fdf9" d="M 88.5,114.5 C 88.6558,121.778 90.1558,128.778 93,135.5C 103.894,158.038 120.394,163.538 142.5,152C 153.59,141.644 159.09,128.811 159,113.5C 160.011,112.663 161.178,112.33 162.5,112.5C 163.587,120.277 162.753,127.943 160,135.5C 149.674,159.753 132.174,167.753 107.5,159.5C 91.6598,148.822 83.9931,133.822 84.5,114.5C 85.8333,111.833 87.1667,111.833 88.5,114.5 Z"/></g>
<g><path style="opacity:1" fill="#57e382" d="M 84.5,114.5 C 83.9931,133.822 91.6598,148.822 107.5,159.5C 102.45,165.023 96.6163,170.356 90,175.5C 89.6667,175.167 89.3333,174.833 89,174.5C 88.2904,175.973 87.1238,176.64 85.5,176.5C 85.6399,178.124 84.9733,179.29 83.5,180C 83.8333,180.333 84.1667,180.667 84.5,181C 80.407,183.458 76.0737,186.625 71.5,190.5C 70.6143,191.325 70.281,192.325 70.5,193.5C 69.448,193.351 68.448,193.517 67.5,194C 65.2894,196.785 62.6227,199.118 59.5,201C 60.1667,201.333 60.8333,201.667 61.5,202C 59.9194,202.707 58.4194,203.54 57,204.5C 56.6667,204.167 56.3333,203.833 56,203.5C 53.2392,206.108 50.7392,208.774 48.5,211.5C 45.8333,211.5 43.1667,211.5 40.5,211.5C 39.3454,204.679 39.1787,197.679 40,190.5C 41.1781,177.68 42.3448,165.014 43.5,152.5C 43.335,155.85 43.5017,159.183 44,162.5C 45.5699,161.386 46.9032,160.053 48,158.5C 49.7487,159.299 51.082,158.632 52,156.5C 53.8402,157.833 54.3402,157.666 53.5,156C 54.6872,154.981 55.6872,153.814 56.5,152.5C 55.9747,151.808 55.3081,151.308 54.5,151C 55.4601,149.581 56.2935,148.081 57,146.5C 57.3333,147.5 57.6667,148.5 58,149.5C 58.6228,145.068 59.6228,144.735 61,148.5C 61.2362,146.236 61.7362,144.069 62.5,142C 60.3855,141.576 59.5521,140.409 60,138.5C 61.7635,139.944 63.7635,140.944 66,141.5C 68.2677,140.924 69.2677,139.59 69,137.5C 63.7897,140.755 62.7897,140.088 66,135.5C 66.6667,138.167 67.3333,138.167 68,135.5C 71.1103,136.673 71.277,136.173 68.5,134C 70.6691,135.114 72.5024,134.614 74,132.5C 77.337,135.32 78.5036,134.653 77.5,130.5C 79.5664,127.702 81.0664,128.035 82,131.5C 82.7826,129.567 82.2826,128.067 80.5,127C 82.0139,125.561 82.3473,124.061 81.5,122.5C 80.676,124.748 79.676,124.914 78.5,123C 79.8908,121.35 81.3908,120.85 83,121.5C 83.1862,118.964 83.6862,116.631 84.5,114.5 Z"/></g>
<g><path style="opacity:1" fill="#54d87b" d="M 208.5,127.5 C 210.562,148.468 212.395,169.468 214,190.5C 214.812,197.747 214.646,204.914 213.5,212C 155.665,212.832 97.9985,212.665 40.5,211.5C 43.1667,211.5 45.8333,211.5 48.5,211.5C 68.5028,211.667 88.5028,211.5 108.5,211C 110.584,210.222 112.417,209.055 114,207.5C 114.333,207.833 114.667,208.167 115,208.5C 115.552,205.803 117.052,203.803 119.5,202.5C 120.086,202.709 120.586,203.043 121,203.5C 123.825,202.416 123.992,201.249 121.5,200C 123.96,198.542 126.127,196.709 128,194.5C 130.129,195.863 130.629,195.529 129.5,193.5C 131.149,192.352 132.649,191.019 134,189.5C 136.159,188.113 138.493,186.113 141,183.5C 141.333,183.833 141.667,184.167 142,184.5C 143.487,183.747 143.654,182.914 142.5,182C 144.207,181.805 145.874,181.805 147.5,182C 147.306,180.57 147.306,179.07 147.5,177.5C 152.341,174.797 156.674,171.63 160.5,168C 161.167,166.667 162.167,165.667 163.5,165C 163.167,164.667 162.833,164.333 162.5,164C 168.608,159.729 174.274,154.896 179.5,149.5C 181.838,151.011 182.504,150.677 181.5,148.5C 182.665,147.416 183.998,146.583 185.5,146C 184.66,144.334 185.16,144.167 187,145.5C 188.605,143.175 190.272,140.842 192,138.5C 192.667,139.833 193.333,139.833 194,138.5C 194.359,135.456 195.026,135.122 196,137.5C 199.106,134.394 202.272,131.228 205.5,128C 206.448,127.517 207.448,127.351 208.5,127.5 Z"/></g>
</svg>
